<?xml version="1.0" encoding="UTF-8" standalone="no"?>
<!DOCTYPE svg PUBLIC "-//W3C//DTD SVG 1.1//EN"
 "http://www.w3.org/Graphics/SVG/1.1/DTD/svg11.dtd">
<!-- Generated by graphviz version 2.38.0 (20140413.2041)
 -->
<!-- Title: types Pages: 1 -->
<svg width="858pt" height="575pt"
 viewBox="0.00 0.00 857.96 575.00" xmlns="http://www.w3.org/2000/svg" xmlns:xlink="http://www.w3.org/1999/xlink">
<g id="graph0" class="graph" transform="scale(1 1) rotate(0) translate(4 571)">
<title>types</title>
<polygon fill="white" stroke="none" points="-4,4 -4,-571 853.961,-571 853.961,4 -4,4"/>
<!-- Product -->
<g id="node1" class="node"><title>Product</title>
<polygon fill="none" stroke="gray" points="348.461,-530.5 348.461,-566.5 407.461,-566.5 407.461,-530.5 348.461,-530.5"/>
<text text-anchor="middle" x="377.961" y="-544.8" font-family="Times,serif" font-size="14.00">Product</text>
</g>
<!-- GE -->
<g id="node2" class="node"><title>GE</title>
<polygon fill="none" stroke="black" stroke-width="2" points="307.961,-424.5 307.961,-493.5 447.961,-493.5 447.961,-424.5 307.961,-424.5"/>
<text text-anchor="middle" x="377.961" y="-478.3" font-family="Times,serif" font-size="14.00">GE</text>
<polyline fill="none" stroke="black" stroke-width="2" points="307.961,-470.5 447.961,-470.5 "/>
<text text-anchor="middle" x="377.961" y="-455.3" font-family="Times,serif" font-size="14.00">&#45; rate: MaybeRate</text>
<polyline fill="none" stroke="black" stroke-width="2" points="307.961,-447.5 447.961,-447.5 "/>
<text text-anchor="middle" x="377.961" y="-432.3" font-family="Times,serif" font-size="14.00">&#45; expand: UGenInLike</text>
</g>
<!-- Product&#45;&gt;GE -->
<g id="edge1" class="edge"><title>Product&#45;&gt;GE</title>
<path fill="none" stroke="black" d="M377.961,-530.213C377.961,-522.532 377.961,-513.108 377.961,-503.688"/>
<polygon fill="black" stroke="black" points="381.461,-503.55 377.961,-493.55 374.461,-503.55 381.461,-503.55"/>
</g>
<!-- UGen -->
<g id="node8" class="node"><title>UGen</title>
<polygon fill="none" stroke="red" points="19.4612,-189.5 19.4612,-304.5 170.461,-304.5 170.461,-189.5 19.4612,-189.5"/>
<text text-anchor="middle" x="94.9612" y="-289.3" font-family="Times,serif" font-size="14.00">UGen</text>
<polyline fill="none" stroke="red" points="19.4612,-281.5 170.461,-281.5 "/>
<text text-anchor="middle" x="94.9612" y="-266.3" font-family="Times,serif" font-size="14.00">&#45; name: String</text>
<polyline fill="none" stroke="red" points="19.4612,-258.5 170.461,-258.5 "/>
<text text-anchor="middle" x="94.9612" y="-243.3" font-family="Times,serif" font-size="14.00">&#45; rate: Rate</text>
<polyline fill="none" stroke="red" points="19.4612,-235.5 170.461,-235.5 "/>
<text text-anchor="middle" x="94.9612" y="-220.3" font-family="Times,serif" font-size="14.00">&#45; inputs: Seq[UGenIn]</text>
<polyline fill="none" stroke="red" points="19.4612,-212.5 170.461,-212.5 "/>
<text text-anchor="middle" x="94.9612" y="-197.3" font-family="Times,serif" font-size="14.00">&#45; outputRates: Seq[Rate]</text>
</g>
<!-- Product&#45;&gt;UGen -->
<g id="edge2" class="edge"><title>Product&#45;&gt;UGen</title>
<path fill="none" stroke="black" d="M348.366,-530.269C332.876,-520.576 314.05,-507.691 298.961,-494 238.117,-438.792 179.406,-365.145 140.718,-312.862"/>
<polygon fill="black" stroke="black" points="143.429,-310.641 134.684,-304.66 137.791,-314.789 143.429,-310.641"/>
</g>
<!-- Lazy -->
<g id="node16" class="node"><title>Lazy</title>
<polygon fill="none" stroke="black" points="487.461,-436 487.461,-482 690.461,-482 690.461,-436 487.461,-436"/>
<text text-anchor="middle" x="588.961" y="-466.8" font-family="Times,serif" font-size="14.00">Lazy</text>
<polyline fill="none" stroke="black" points="487.461,-459 690.461,-459 "/>
<text text-anchor="middle" x="588.961" y="-443.8" font-family="Times,serif" font-size="14.00">&#45; force(UGenGraph.Builder): Unit</text>
</g>
<!-- Product&#45;&gt;Lazy -->
<g id="edge3" class="edge"><title>Product&#45;&gt;Lazy</title>
<path fill="none" stroke="black" d="M407.745,-535.149C438.324,-522.468 486.841,-502.349 525.981,-486.118"/>
<polygon fill="black" stroke="black" points="527.816,-489.145 535.713,-482.082 525.135,-482.679 527.816,-489.145"/>
</g>
<!-- UGenInLike -->
<g id="node3" class="node"><title>UGenInLike</title>
<polygon fill="none" stroke="red" points="325.461,-346.5 325.461,-382.5 410.461,-382.5 410.461,-346.5 325.461,-346.5"/>
<text text-anchor="middle" x="367.961" y="-360.8" font-family="Times,serif" font-size="14.00">UGenInLike</text>
</g>
<!-- GE&#45;&gt;UGenInLike -->
<g id="edge4" class="edge"><title>GE&#45;&gt;UGenInLike</title>
<path fill="none" stroke="black" d="M374.323,-424.344C373.199,-413.949 371.976,-402.637 370.905,-392.733"/>
<polygon fill="black" stroke="black" points="374.37,-392.215 369.815,-382.649 367.41,-392.967 374.37,-392.215"/>
</g>
<!-- GESeq -->
<g id="node14" class="node"><title>GESeq</title>
<polygon fill="none" stroke="blue" points="467.461,-346.5 467.461,-382.5 522.461,-382.5 522.461,-346.5 467.461,-346.5"/>
<text text-anchor="middle" x="494.961" y="-360.8" font-family="Times,serif" font-size="14.00">GESeq</text>
</g>
<!-- GE&#45;&gt;GESeq -->
<g id="edge5" class="edge"><title>GE&#45;&gt;GESeq</title>
<path fill="none" stroke="black" d="M420.532,-424.344C435.357,-412.623 451.661,-399.733 465.22,-389.013"/>
<polygon fill="black" stroke="black" points="467.596,-391.596 473.27,-382.649 463.255,-386.105 467.596,-391.596"/>
</g>
<!-- UGenInSeq -->
<g id="node15" class="node"><title>UGenInSeq</title>
<polygon fill="none" stroke="blue" points="226.961,-346.5 226.961,-382.5 306.961,-382.5 306.961,-346.5 226.961,-346.5"/>
<text text-anchor="middle" x="266.961" y="-360.8" font-family="Times,serif" font-size="14.00">UGenInSeq</text>
</g>
<!-- GE&#45;&gt;UGenInSeq -->
<g id="edge6" class="edge"><title>GE&#45;&gt;UGenInSeq</title>
<path fill="none" stroke="black" d="M337.574,-424.344C323.641,-412.733 308.333,-399.976 295.542,-389.317"/>
<polygon fill="black" stroke="black" points="297.463,-386.362 287.54,-382.649 292.981,-391.739 297.463,-386.362"/>
</g>
<!-- GE_Lazy -->
<g id="node23" class="node"><title>GE_Lazy</title>
<polygon fill="none" stroke="black" points="495.461,-224 495.461,-270 614.461,-270 614.461,-224 495.461,-224"/>
<text text-anchor="middle" x="554.961" y="-254.8" font-family="Times,serif" font-size="14.00">GE.Lazy</text>
<polyline fill="none" stroke="black" points="495.461,-247 614.461,-247 "/>
<text text-anchor="middle" x="554.961" y="-231.8" font-family="Times,serif" font-size="14.00">&#45; U = UGenInLike</text>
</g>
<!-- GE&#45;&gt;GE_Lazy -->
<g id="edge7" class="edge"><title>GE&#45;&gt;GE_Lazy</title>
<path fill="none" stroke="black" d="M398.307,-424.405C413.537,-400.272 435.528,-367.467 457.961,-341 477.404,-318.061 501.857,-294.646 521.347,-277.049"/>
<polygon fill="black" stroke="black" points="523.702,-279.639 528.823,-270.364 519.036,-274.421 523.702,-279.639"/>
</g>
<!-- UGenIn -->
<g id="node4" class="node"><title>UGenIn</title>
<polygon fill="none" stroke="red" points="327.961,-224 327.961,-270 453.961,-270 453.961,-224 327.961,-224"/>
<text text-anchor="middle" x="390.961" y="-254.8" font-family="Times,serif" font-size="14.00">UGenIn</text>
<polyline fill="none" stroke="red" points="327.961,-247 453.961,-247 "/>
<text text-anchor="middle" x="390.961" y="-231.8" font-family="Times,serif" font-size="14.00">&#45; override rate: Rate</text>
</g>
<!-- UGenInLike&#45;&gt;UGenIn -->
<g id="edge9" class="edge"><title>UGenInLike&#45;&gt;UGenIn</title>
<path fill="none" stroke="black" d="M371.355,-346.458C374.813,-329.093 380.26,-301.739 384.536,-280.265"/>
<polygon fill="black" stroke="black" points="388.007,-280.756 386.527,-270.265 381.142,-279.389 388.007,-280.756"/>
</g>
<!-- UGenInGroup -->
<g id="node12" class="node"><title>UGenInGroup</title>
<polygon fill="none" stroke="red" points="214.461,-229 214.461,-265 309.461,-265 309.461,-229 214.461,-229"/>
<text text-anchor="middle" x="261.961" y="-243.3" font-family="Times,serif" font-size="14.00">UGenInGroup</text>
</g>
<!-- UGenInLike&#45;&gt;UGenInGroup -->
<g id="edge10" class="edge"><title>UGenInLike&#45;&gt;UGenInGroup</title>
<path fill="none" stroke="black" d="M352.32,-346.458C334.393,-326.924 304.863,-294.747 284.466,-272.522"/>
<polygon fill="black" stroke="black" points="287.006,-270.113 277.666,-265.112 281.849,-274.847 287.006,-270.113"/>
</g>
<!-- Constant -->
<g id="node5" class="node"><title>Constant</title>
<polygon fill="none" stroke="blue" stroke-width="2" points="334.461,-100 334.461,-136 399.461,-136 399.461,-100 334.461,-100"/>
<text text-anchor="middle" x="366.961" y="-114.3" font-family="Times,serif" font-size="14.00">Constant</text>
</g>
<!-- UGenIn&#45;&gt;Constant -->
<g id="edge13" class="edge"><title>UGenIn&#45;&gt;Constant</title>
<path fill="none" stroke="black" d="M386.781,-223.878C382.704,-202.308 376.496,-169.456 372.116,-146.278"/>
<polygon fill="black" stroke="black" points="375.542,-145.56 370.246,-136.384 368.664,-146.86 375.542,-145.56"/>
</g>
<!-- UGenProxy -->
<g id="node6" class="node"><title>UGenProxy</title>
<polygon fill="none" stroke="red" points="417.461,-83.5 417.461,-152.5 530.461,-152.5 530.461,-83.5 417.461,-83.5"/>
<text text-anchor="middle" x="473.961" y="-137.3" font-family="Times,serif" font-size="14.00">UGenProxy</text>
<polyline fill="none" stroke="red" points="417.461,-129.5 530.461,-129.5 "/>
<text text-anchor="middle" x="473.961" y="-114.3" font-family="Times,serif" font-size="14.00">&#45; source: UGen</text>
<polyline fill="none" stroke="red" points="417.461,-106.5 530.461,-106.5 "/>
<text text-anchor="middle" x="473.961" y="-91.3" font-family="Times,serif" font-size="14.00">&#45; outputIndex: Int</text>
</g>
<!-- UGenIn&#45;&gt;UGenProxy -->
<g id="edge14" class="edge"><title>UGenIn&#45;&gt;UGenProxy</title>
<path fill="none" stroke="black" d="M405.419,-223.878C416.685,-206.639 432.662,-182.193 446.356,-161.239"/>
<polygon fill="black" stroke="black" points="449.328,-163.09 451.869,-152.804 443.468,-159.26 449.328,-163.09"/>
</g>
<!-- UGenOutProxy -->
<g id="node7" class="node"><title>UGenOutProxy</title>
<polygon fill="none" stroke="blue" points="367.961,-0.5 367.961,-46.5 573.961,-46.5 573.961,-0.5 367.961,-0.5"/>
<text text-anchor="middle" x="470.961" y="-31.3" font-family="Times,serif" font-size="14.00">UGenOutProxy</text>
<polyline fill="none" stroke="blue" points="367.961,-23.5 573.961,-23.5 "/>
<text text-anchor="middle" x="470.961" y="-8.3" font-family="Times,serif" font-size="14.00">&#45; override source: UGen_MultiOut</text>
</g>
<!-- UGenProxy&#45;&gt;UGenOutProxy -->
<g id="edge16" class="edge"><title>UGenProxy&#45;&gt;UGenOutProxy</title>
<path fill="none" stroke="black" d="M472.87,-83.3437C472.589,-74.6767 472.287,-65.3711 472.008,-56.7761"/>
<polygon fill="black" stroke="black" points="475.505,-56.6164 471.682,-46.7351 468.508,-56.8434 475.505,-56.6164"/>
</g>
<!-- UGen_SingleOut -->
<g id="node9" class="node"><title>UGen_SingleOut</title>
<polygon fill="none" stroke="black" points="92.4612,-5.5 92.4612,-41.5 199.461,-41.5 199.461,-5.5 92.4612,-5.5"/>
<text text-anchor="middle" x="145.961" y="-19.8" font-family="Times,serif" font-size="14.00">UGen.SingleOut</text>
</g>
<!-- UGenProxy&#45;&gt;UGen_SingleOut -->
<g id="edge15" class="edge"><title>UGenProxy&#45;&gt;UGen_SingleOut</title>
<path fill="none" stroke="black" d="M417.127,-86.5913C414.058,-85.3057 410.991,-84.0979 407.961,-83 342.201,-59.1679 263.5,-43.1733 209.631,-34.0175"/>
<polygon fill="black" stroke="black" points="209.975,-30.5266 199.535,-32.3322 208.822,-37.431 209.975,-30.5266"/>
</g>
<!-- UGen&#45;&gt;UGen_SingleOut -->
<g id="edge18" class="edge"><title>UGen&#45;&gt;UGen_SingleOut</title>
<path fill="none" stroke="black" d="M32.5239,-189.461C23.7114,-178.306 15.9613,-165.996 10.9612,-153 -0.210665,-123.964 -6.11304,-109.007 10.9612,-83 27.0048,-58.5626 55.6842,-44.2833 82.4953,-35.9635"/>
<polygon fill="black" stroke="black" points="83.6155,-39.2834 92.2617,-33.1602 81.6842,-32.5551 83.6155,-39.2834"/>
</g>
<!-- UGen_ZeroOut -->
<g id="node10" class="node"><title>UGen_ZeroOut</title>
<polygon fill="none" stroke="black" points="19.9612,-100 19.9612,-136 117.961,-136 117.961,-100 19.9612,-100"/>
<text text-anchor="middle" x="68.9612" y="-114.3" font-family="Times,serif" font-size="14.00">UGen.ZeroOut</text>
</g>
<!-- UGen&#45;&gt;UGen_ZeroOut -->
<g id="edge17" class="edge"><title>UGen&#45;&gt;UGen_ZeroOut</title>
<path fill="none" stroke="black" d="M83.33,-189.186C80.2456,-174.12 77.0572,-158.546 74.4698,-145.908"/>
<polygon fill="black" stroke="black" points="77.8879,-145.153 72.4533,-136.058 71.0301,-146.557 77.8879,-145.153"/>
</g>
<!-- UGen_MultiOut -->
<g id="node11" class="node"><title>UGen_MultiOut</title>
<polygon fill="none" stroke="black" points="135.961,-100 135.961,-136 239.961,-136 239.961,-100 135.961,-100"/>
<text text-anchor="middle" x="187.961" y="-114.3" font-family="Times,serif" font-size="14.00">UGen.MultiOut</text>
</g>
<!-- UGen&#45;&gt;UGen_MultiOut -->
<g id="edge19" class="edge"><title>UGen&#45;&gt;UGen_MultiOut</title>
<path fill="none" stroke="black" d="M136.565,-189.186C148.039,-173.517 159.915,-157.299 169.357,-144.406"/>
<polygon fill="black" stroke="black" points="172.386,-146.194 175.47,-136.058 166.738,-142.058 172.386,-146.194"/>
</g>
<!-- UGenInGroup&#45;&gt;UGen_MultiOut -->
<g id="edge12" class="edge"><title>UGenInGroup&#45;&gt;UGen_MultiOut</title>
<path fill="none" stroke="black" d="M251.981,-228.872C239.458,-207.379 217.853,-170.302 203.243,-145.227"/>
<polygon fill="black" stroke="black" points="206.078,-143.14 198.019,-136.262 200.03,-146.664 206.078,-143.14"/>
</g>
<!-- Control -->
<g id="node13" class="node"><title>Control</title>
<polygon fill="none" stroke="blue" points="257.961,-100 257.961,-136 315.961,-136 315.961,-100 257.961,-100"/>
<text text-anchor="middle" x="286.961" y="-114.3" font-family="Times,serif" font-size="14.00">Control</text>
</g>
<!-- UGenInGroup&#45;&gt;Control -->
<g id="edge11" class="edge"><title>UGenInGroup&#45;&gt;Control</title>
<path fill="none" stroke="black" d="M265.333,-228.872C269.508,-207.663 276.67,-171.279 281.601,-146.227"/>
<polygon fill="black" stroke="black" points="285.066,-146.75 283.563,-136.262 278.198,-145.398 285.066,-146.75"/>
</g>
<!-- Lazy_Expander -->
<g id="node17" class="node"><title>Lazy_Expander</title>
<polygon fill="none" stroke="black" points="540.961,-341.5 540.961,-387.5 658.961,-387.5 658.961,-341.5 540.961,-341.5"/>
<text text-anchor="middle" x="599.961" y="-372.3" font-family="Times,serif" font-size="14.00">Lazy.Expander[U]</text>
<polyline fill="none" stroke="black" points="540.961,-364.5 658.961,-364.5 "/>
<text text-anchor="middle" x="599.961" y="-349.3" font-family="Times,serif" font-size="14.00">&#45; expand: U</text>
</g>
<!-- Lazy&#45;&gt;Lazy_Expander -->
<g id="edge20" class="edge"><title>Lazy&#45;&gt;Lazy_Expander</title>
<path fill="none" stroke="black" d="M591.624,-435.608C592.975,-424.246 594.641,-410.239 596.127,-397.739"/>
<polygon fill="black" stroke="black" points="599.617,-398.029 597.323,-387.685 592.666,-397.202 599.617,-398.029"/>
</g>
<!-- UGenSource -->
<g id="node18" class="node"><title>UGenSource</title>
<polygon fill="none" stroke="red" points="632.961,-212.5 632.961,-281.5 818.961,-281.5 818.961,-212.5 632.961,-212.5"/>
<text text-anchor="middle" x="725.961" y="-266.3" font-family="Times,serif" font-size="14.00">UGenSource[U]</text>
<polyline fill="none" stroke="red" points="632.961,-258.5 818.961,-258.5 "/>
<text text-anchor="middle" x="725.961" y="-243.3" font-family="Times,serif" font-size="14.00">&#45; name: String</text>
<polyline fill="none" stroke="red" points="632.961,-235.5 818.961,-235.5 "/>
<text text-anchor="middle" x="725.961" y="-220.3" font-family="Times,serif" font-size="14.00">&#45; makeUGen(Seq[UGenIn]): U</text>
</g>
<!-- Lazy_Expander&#45;&gt;UGenSource -->
<g id="edge22" class="edge"><title>Lazy_Expander&#45;&gt;UGenSource</title>
<path fill="none" stroke="black" d="M624.255,-341.23C640.543,-326.3 662.467,-306.203 681.789,-288.492"/>
<polygon fill="black" stroke="black" points="684.32,-290.919 689.326,-281.582 679.59,-285.759 684.32,-290.919"/>
</g>
<!-- Lazy_Expander&#45;&gt;GE_Lazy -->
<g id="edge21" class="edge"><title>Lazy_Expander&#45;&gt;GE_Lazy</title>
<path fill="none" stroke="black" d="M591.285,-341.23C584.468,-323.734 574.887,-299.144 567.277,-279.61"/>
<polygon fill="black" stroke="black" points="570.503,-278.248 563.611,-270.201 563.98,-280.79 570.503,-278.248"/>
</g>
<!-- UGenSource_ZeroOut -->
<g id="node19" class="node"><title>UGenSource_ZeroOut</title>
<polygon fill="none" stroke="black" points="713.961,-95 713.961,-141 849.961,-141 849.961,-95 713.961,-95"/>
<text text-anchor="middle" x="781.961" y="-125.8" font-family="Times,serif" font-size="14.00">UGenSource.ZeroOut</text>
<polyline fill="none" stroke="black" points="713.961,-118 849.961,-118 "/>
<text text-anchor="middle" x="781.961" y="-102.8" font-family="Times,serif" font-size="14.00">&#45; U = Unit</text>
</g>
<!-- UGenSource&#45;&gt;UGenSource_ZeroOut -->
<g id="edge23" class="edge"><title>UGenSource&#45;&gt;UGenSource_ZeroOut</title>
<path fill="none" stroke="black" d="M740.821,-212.3C749.265,-193.151 759.77,-169.327 768.051,-150.546"/>
<polygon fill="black" stroke="black" points="771.324,-151.798 772.156,-141.236 764.919,-148.974 771.324,-151.798"/>
</g>
<!-- UGenSource_SomeOut -->
<g id="node20" class="node"><title>UGenSource_SomeOut</title>
<polygon fill="none" stroke="black" points="553.961,-95 553.961,-141 695.961,-141 695.961,-95 553.961,-95"/>
<text text-anchor="middle" x="624.961" y="-125.8" font-family="Times,serif" font-size="14.00">UGenSource.SomeOut</text>
<polyline fill="none" stroke="black" points="553.961,-118 695.961,-118 "/>
<text text-anchor="middle" x="624.961" y="-102.8" font-family="Times,serif" font-size="14.00">&#45; U = UGenInLike</text>
</g>
<!-- UGenSource&#45;&gt;UGenSource_SomeOut -->
<g id="edge24" class="edge"><title>UGenSource&#45;&gt;UGenSource_SomeOut</title>
<path fill="none" stroke="black" d="M699.16,-212.3C683.582,-192.712 664.114,-168.232 649.028,-149.262"/>
<polygon fill="black" stroke="black" points="651.609,-146.885 642.645,-141.236 646.13,-151.242 651.609,-146.885"/>
</g>
<!-- Out -->
<g id="node22" class="node"><title>Out</title>
<polygon fill="none" stroke="blue" stroke-width="2" points="808.961,-41.5 758.961,-41.5 754.961,-37.5 754.961,-5.5 804.961,-5.5 808.961,-9.5 808.961,-41.5"/>
<polyline fill="none" stroke="blue" stroke-width="2" points="804.961,-37.5 754.961,-37.5 "/>
<polyline fill="none" stroke="blue" stroke-width="2" points="804.961,-37.5 804.961,-5.5 "/>
<polyline fill="none" stroke="blue" stroke-width="2" points="804.961,-37.5 808.961,-41.5 "/>
<text text-anchor="middle" x="781.961" y="-19.8" font-family="Times,serif" font-size="14.00">Out ...</text>
</g>
<!-- UGenSource_ZeroOut&#45;&gt;Out -->
<g id="edge25" class="edge"><title>UGenSource_ZeroOut&#45;&gt;Out</title>
<path fill="none" stroke="black" d="M781.961,-94.6083C781.961,-81.7827 781.961,-65.5862 781.961,-51.9926"/>
<polygon fill="black" stroke="black" points="785.461,-51.7629 781.961,-41.7629 778.461,-51.763 785.461,-51.7629"/>
</g>
<!-- SinOsc -->
<g id="node21" class="node"><title>SinOsc</title>
<polygon fill="none" stroke="blue" stroke-width="2" points="663.461,-41.5 596.461,-41.5 592.461,-37.5 592.461,-5.5 659.461,-5.5 663.461,-9.5 663.461,-41.5"/>
<polyline fill="none" stroke="blue" stroke-width="2" points="659.461,-37.5 592.461,-37.5 "/>
<polyline fill="none" stroke="blue" stroke-width="2" points="659.461,-37.5 659.461,-5.5 "/>
<polyline fill="none" stroke="blue" stroke-width="2" points="659.461,-37.5 663.461,-41.5 "/>
<text text-anchor="middle" x="627.961" y="-19.8" font-family="Times,serif" font-size="14.00">SinOsc ...</text>
</g>
<!-- UGenSource_SomeOut&#45;&gt;SinOsc -->
<g id="edge26" class="edge"><title>UGenSource_SomeOut&#45;&gt;SinOsc</title>
<path fill="none" stroke="black" d="M625.687,-94.6083C626.103,-81.7827 626.629,-65.5862 627.07,-51.9926"/>
<polygon fill="black" stroke="black" points="630.575,-51.8712 627.401,-41.7629 623.579,-51.6442 630.575,-51.8712"/>
</g>
<!-- GE_Lazy&#45;&gt;UGenSource_SomeOut -->
<g id="edge8" class="edge"><title>GE_Lazy&#45;&gt;UGenSource_SomeOut</title>
<path fill="none" stroke="black" d="M567.154,-223.878C578.378,-203.516 595.143,-173.099 607.732,-150.258"/>
<polygon fill="black" stroke="black" points="610.911,-151.742 612.673,-141.294 604.781,-148.363 610.911,-151.742"/>
</g>
</g>
</svg>
